<svg xmlns="http://www.w3.org/2000/svg" width="125" height="200" style="width:100%;height:100%;transform:translate3d(0,0,0);content-visibility:visible"><defs><mask id="c" mask-type="alpha"><path stroke-linecap="round" fill-opacity="0" stroke="#7B5DD6" stroke-width="3" d="M40.78 59.122S38.833 66.5 39 69.5c-7.15-2.926-14.726-2.736-21.417-.909" transform="matrix(1.32 0 0 1.32 63.707 103.872)" style="display:block"/></mask><mask id="b" mask-type="alpha"><path fill="#65428F" d="M28.07 26.61v.2-.2zm-3.12.14v-.06l-1-.04 1 .1zM58.5-23.43c-3.48-43.62-37.5-32-33.71 40.91.13 1.8.28 3.59.45 5.39h.08C18.8-53.6 55.63-67.97 58.5-23.43zm-.01.25v2h.02c.02-.65.01-1.31-.02-2zm-.02 2.86c-.07.57-.07 1.05-.07 1.57h.02c.03-.52.05-1.04.05-1.57zm-.18 2.92c-.04.38-.11.77-.11 1.15h.02c.04-.35.07-.77.09-1.15zm-4.01-17.05C37.18-73.11 25.83-9.39 26.98 1.3H27c-1.65-16.1 13.14-72.26 27.28-35.75zM27.62 22.8c-.38-3.77-.64-7.56-.74-11.33h.02c.09 3.78.34 7.56.72 11.33zm-.74-18.5v3.8c.03-3.03.02-2.55 0-3.8zm-1.14 22.41h-.09l.01.2h.08v-.2zm-1.33.17h.56-.56zm3.85-4.14c19.62-3.34 24.38-26 26.9-40.94-.45-48.33-32.46-32.03-26.9 40.94zM25.44-14.7c11.19-72.6 54.33-17.43 22.32 29.8a27.572 27.572 0 0 1-19.05 11.77c2.54 20.53 7.57 32.43 15.36 50.7-6.92-10.87-14.29-35.15-16-50.61a153.803 153.803 0 0 0 15.22 50l-.14-.17c2.37 5 5.81 10.65 7.52 13.65.75-7.55 1-8.56 2.68-9.93a52.334 52.334 0 0 0-1.86 6.86c1.47-6.14 1.72-5.94 2-6.78a.996.996 0 0 0 .52.2l.16-.45c1.68.34 1.18-.04 1.68.73a17.074 17.074 0 0 0-1.9 7.37c.067-2.493.754-4.93 2-7.09-.63 30.4-4.84 7.36-29.77 14.85 9.44-2.74 8.5-1.47 11.5-1.89-10.68.5-10.49 1.82-11.49 1.7a.589.589 0 0 0-.13-.54c-2.13.58-1.65-1.22-1-1.63a66.846 66.846 0 0 1 14.14-2.12c-5.67-.01-10.58 1.3-13.87 1.83 3.55-2.08 4.63-1.25 5.8-1.81.07.09.07.26.07.35 4.18-1.14 8.24-.69 12.5-.82-.13-.06 0-.12 0-.18a56.381 56.381 0 0 0-12.38.62c7.77-1.25 13.4-1.06 18.46.25C35.4 72 29.04 49.38 25.78 27.1h-.09a159.904 159.904 0 0 0 16.44 53.3c-10.11-17.66-14.5-35-17.14-53.33C-19.02 12.58-45-39.1-59.37-87.6c2.2-1.08 3.59 9.6 6.55 16.42l.34-.12c-4.5-14.24-6.96-23.57-6.83-26.3C-45.02-53.86-22.37 5.09 24.56 22.83a152.382 152.382 0 0 1-.71-17.21h.36c8.38-125.9 71.32-2.04 4.49 20.91v.21C89.78 8.68 42.02-107.19 25.44-14.7z" transform="translate(62.37 100.1)" style="display:block"/></mask><clipPath id="a"><path d="M0 0h125v200H0z"/></clipPath></defs><g clip-path="url(#a)"><g mask="url(#b)" style="display:block"><path stroke-linecap="round" stroke="#7B5DD6" stroke-width="3.96" d="M2.751 5.238s22.996 88.775 76.622 117.011c1.397.735 7.643 2.705 9.352 2.806 24.274 1.447 43.774-55.054 21.27-72.66-13.298-8.423-45.245 68.856 2.68 139.887" fill="none"/></g><g mask="url(#c)" style="display:block"><path fill="#7B5DD6" d="M90.44 126.71v.2-.2zm-3.12.14v-.06l-1-.04 1 .1zm33.55-50.18c-3.48-43.62-37.5-32-33.71 40.91.13 1.8.28 3.59.45 5.39h.08C81.17 46.5 118 32.13 120.87 76.67zm-.01.25v2h.02c.02-.65.01-1.31-.02-2zm-.02 2.86c-.07.57-.07 1.05-.07 1.57h.02c.03-.52.05-1.04.05-1.57zm-.18 2.92c-.04.38-.11.77-.11 1.15h.02c.04-.35.07-.77.09-1.15zm-4.01-17.05c-17.1-38.66-28.45 25.06-27.3 35.75h.02c-1.65-16.1 13.14-72.26 27.28-35.75zM89.99 122.9c-.38-3.77-.64-7.56-.74-11.33h.02c.09 3.78.34 7.56.72 11.33zm-.74-18.5v3.8c.03-3.03.02-2.55 0-3.8zm-1.14 22.41h-.09l.01.2h.08v-.2zm-1.33.17h.56-.56zm3.85-4.14c19.62-3.34 24.38-26 26.9-40.94-.45-48.33-32.46-32.03-26.9 40.94zM87.81 85.4c11.19-72.6 54.33-17.43 22.32 29.8a27.572 27.572 0 0 1-19.05 11.77c2.54 20.53 7.57 32.43 15.36 50.7-6.92-10.87-14.29-35.15-16-50.61a153.803 153.803 0 0 0 15.22 50l-.14-.17c2.37 5 5.81 10.65 7.52 13.65.75-7.55 1-8.56 2.68-9.93a52.334 52.334 0 0 0-1.86 6.86c1.47-6.14 1.72-5.94 2-6.78a.996.996 0 0 0 .52.2l.16-.45c1.68.34 1.18-.04 1.68.73a17.074 17.074 0 0 0-1.9 7.37c.067-2.493.754-4.93 2-7.09-.63 30.4-4.84 7.36-29.77 14.85 9.44-2.74 8.5-1.47 11.5-1.89-10.68.5-10.49 1.82-11.49 1.7a.589.589 0 0 0-.13-.54c-2.13.58-1.65-1.22-1-1.63a66.846 66.846 0 0 1 14.14-2.12c-5.67-.01-10.58 1.3-13.87 1.83 3.55-2.08 4.63-1.25 5.8-1.81.07.09.07.26.07.35 4.18-1.14 8.24-.69 12.5-.82-.13-.06 0-.12 0-.18a56.381 56.381 0 0 0-12.38.62c7.77-1.25 13.4-1.06 18.46.25-14.38-19.96-20.74-42.58-24-64.86h-.09a159.904 159.904 0 0 0 16.44 53.3c-10.11-17.66-14.5-35-17.14-53.33C43.35 112.68 17.37 61 3 12.5c2.2-1.08 3.59 9.6 6.55 16.42l.34-.12C5.39 14.56 2.93 5.23 3.06 2.5 17.35 46.24 40 105.19 86.93 122.93a152.382 152.382 0 0 1-.71-17.21h.36c8.38-125.9 71.32-2.04 4.49 20.91v.21c61.08-18.06 13.32-133.93-3.26-41.44z"/></g></g></svg>